<svg width="26" height="26" viewBox="0 0 26 26" fill="none" xmlns="http://www.w3.org/2000/svg">
<path d="M13.025 0.5C20.125 0.5 25.5 6.32123 25.5 12.9812C25.5 20.7053 19.2 25.5 13 25.5C10.95 25.5 8.675 24.9492 6.85 23.8726C6.2125 23.4845 5.675 23.1965 4.9875 23.4219L2.4625 24.173C1.825 24.3733 1.25 23.8726 1.4375 23.1965L2.275 20.3923C2.4125 20.0043 2.3875 19.5911 2.1875 19.2656C1.1125 17.2877 0.5 15.1219 0.5 13.0188C0.5 6.4339 5.7625 0.5 13.025 0.5ZM18.7375 11.4289C17.85 11.4289 17.1375 12.1425 17.1375 13.0313C17.1375 13.9076 17.85 14.6337 18.7375 14.6337C19.625 14.6337 20.3375 13.9076 20.3375 13.0313C20.3375 12.1425 19.625 11.4289 18.7375 11.4289ZM12.975 11.4289C12.1 11.4164 11.375 12.1425 11.375 13.0188C11.375 13.9076 12.0875 14.6212 12.975 14.6337C13.8625 14.6337 14.575 13.9076 14.575 13.0313C14.575 12.1425 13.8625 11.4289 12.975 11.4289ZM7.2125 11.4289C6.325 11.4289 5.6125 12.1425 5.6125 13.0313C5.6125 13.9076 6.3375 14.6337 7.2125 14.6337C8.1 14.6212 8.8125 13.9076 8.8125 13.0313C8.8125 12.1425 8.1 11.4289 7.2125 11.4289Z" fill="url(#paint0_linear_4_26)"/>
<defs>
<linearGradient id="paint0_linear_4_26" x1="13" y1="0.5" x2="13" y2="25.5" gradientUnits="userSpaceOnUse">
<stop stop-color="#D0FFB3"/>
<stop offset="1" stop-color="#72FF1C" stop-opacity="0.85"/>
</linearGradient>
</defs>
</svg>
