<svg width="24" height="26" viewBox="0 0 24 26" fill="none" xmlns="http://www.w3.org/2000/svg">
<path d="M8.41847 23.9667V20.1445C8.41847 19.1688 9.21521 18.3779 10.198 18.3779H13.7908C14.2627 18.3779 14.7154 18.564 15.0491 18.8953C15.3828 19.2266 15.5703 19.676 15.5703 20.1445V23.9667C15.5674 24.3723 15.7276 24.7623 16.0155 25.0502C16.3033 25.3381 16.6951 25.5 17.1037 25.5H19.5548C20.6995 25.5029 21.7984 25.0536 22.609 24.251C23.4195 23.4485 23.875 22.3587 23.875 21.2223V10.3336C23.875 9.41558 23.4651 8.5448 22.7558 7.95584L14.4175 1.34484C12.9671 0.185702 10.8889 0.223128 9.48174 1.43372L1.33377 7.95584C0.590926 8.52744 0.14694 9.40079 0.125 10.3336V21.2112C0.125 23.5798 2.05923 25.5 4.44522 25.5H6.84036C7.68903 25.5 8.37875 24.8203 8.3849 23.9778L8.41847 23.9667Z" fill="url(#paint0_linear_4_16)"/>
<defs>
<linearGradient id="paint0_linear_4_16" x1="12" y1="0.5" x2="12" y2="25.5" gradientUnits="userSpaceOnUse">
<stop stop-color="#97B6FF"/>
<stop offset="1" stop-color="#0851FF"/>
</linearGradient>
</defs>
</svg>
