<svg width="20" height="26" viewBox="0 0 20 26" fill="none" xmlns="http://www.w3.org/2000/svg">
<path d="M13.8374 0.500099C17.2249 0.500099 19.9624 1.8376 19.9999 5.2376V24.2126C19.9999 24.4251 19.9499 24.6376 19.8499 24.8251C19.6874 25.1251 19.4124 25.3501 19.0749 25.4501C18.7499 25.5501 18.3874 25.5001 18.0874 25.3251L9.98738 21.2751L1.87488 25.3251C1.68863 25.4238 1.47488 25.4876 1.26238 25.4876C0.562378 25.4876 -0.00012207 24.9126 -0.00012207 24.2126V5.2376C-0.00012207 1.8376 2.74988 0.500099 6.12488 0.500099H13.8374ZM14.6874 8.0501H5.27488C4.73738 8.0501 4.29988 8.4876 4.29988 9.0376C4.29988 9.58635 4.73738 10.0251 5.27488 10.0251H14.6874C15.2249 10.0251 15.6624 9.58635 15.6624 9.0376C15.6624 8.4876 15.2249 8.0501 14.6874 8.0501Z" fill="url(#paint0_linear_4_31)"/>
<defs>
<linearGradient id="paint0_linear_4_31" x1="9.99988" y1="0.500099" x2="9.99988" y2="25.5011" gradientUnits="userSpaceOnUse">
<stop stop-color="#FEFFB7"/>
<stop offset="1" stop-color="#FAFF00" stop-opacity="0.89"/>
</linearGradient>
</defs>
</svg>
