<svg width="34" height="34" viewBox="0 0 34 34" fill="none" xmlns="http://www.w3.org/2000/svg">
<path d="M26.3679 26.4238C27.0121 25.784 28.0447 25.784 28.6889 26.4238L32.9467 29.8607H33.0206C33.882 30.7314 33.882 32.143 33.0206 33.0137C32.1592 33.8843 30.7626 33.8843 29.9012 33.0137L26.3679 28.9641L26.2338 28.8128C25.984 28.4967 25.8461 28.1025 25.8461 27.694C25.8461 27.2173 26.0338 26.7603 26.3679 26.4238ZM14.6294 0.333344C18.421 0.333344 22.0572 1.85574 24.7383 4.56561C27.4193 7.27549 28.9255 10.9509 28.9255 14.7832C28.9255 22.7637 22.5249 29.2331 14.6294 29.2331C6.73391 29.2331 0.333344 22.7637 0.333344 14.7832C0.333344 6.80277 6.73391 0.333344 14.6294 0.333344Z" fill="black"/>
</svg>
