<svg width="24" height="26" viewBox="0 0 24 26" fill="none" xmlns="http://www.w3.org/2000/svg">
<path d="M12.8964 0.500126C13.8417 0.500126 14.6976 1.02513 15.1703 1.80013C15.4002 2.17513 15.5535 2.63763 15.5152 3.12513C15.4896 3.50013 15.6046 3.87513 15.809 4.22513C16.4605 5.28763 17.904 5.68763 19.0282 5.08763C20.2928 4.36263 21.8896 4.80013 22.6178 6.03763L23.4737 7.51263C24.2146 8.75013 23.8058 10.3376 22.5284 11.0501C21.4425 11.6876 21.0593 13.1001 21.7108 14.1751C21.9152 14.5126 22.1451 14.8001 22.5028 14.9751C22.9499 15.2126 23.2948 15.5876 23.5375 15.9626C24.0102 16.7376 23.9719 17.6876 23.512 18.5251L22.6178 20.0251C22.1451 20.8251 21.2637 21.3251 20.3567 21.3251C19.9096 21.3251 19.4114 21.2001 19.0026 20.9501C18.6705 20.7376 18.2872 20.6626 17.8785 20.6626C16.6138 20.6626 15.5535 21.7001 15.5152 22.9376C15.5152 24.3751 14.3399 25.5001 12.8709 25.5001H11.1335C9.6517 25.5001 8.47644 24.3751 8.47644 22.9376C8.4509 21.7001 7.39061 20.6626 6.12594 20.6626C5.70439 20.6626 5.32115 20.7376 5.00179 20.9501C4.59301 21.2001 4.08203 21.3251 3.6477 21.3251C2.72793 21.3251 1.8465 20.8251 1.37384 20.0251L0.492403 18.5251C0.0197474 17.7126 -0.00580153 16.7376 0.466854 15.9626C0.671245 15.5876 1.05448 15.2126 1.48881 14.9751C1.8465 14.8001 2.07644 14.5126 2.2936 14.1751C2.93233 13.1001 2.54909 11.6876 1.46326 11.0501C0.19859 10.3376 -0.210193 8.75013 0.517952 7.51263L1.37384 6.03763C2.11476 4.80013 3.69879 4.36263 4.97624 5.08763C6.08762 5.68763 7.53113 5.28763 8.18263 4.22513C8.38702 3.87513 8.50199 3.50013 8.47644 3.12513C8.4509 2.63763 8.59142 2.17513 8.83413 1.80013C9.30679 1.02513 10.1627 0.525126 11.0952 0.500126H12.8964ZM12.015 9.47513C10.0094 9.47513 8.38702 11.0501 8.38702 13.0126C8.38702 14.9751 10.0094 16.5376 12.015 16.5376C14.0206 16.5376 15.6046 14.9751 15.6046 13.0126C15.6046 11.0501 14.0206 9.47513 12.015 9.47513Z" fill="url(#paint0_linear_4_21)"/>
<defs>
<linearGradient id="paint0_linear_4_21" x1="11.9999" y1="0.500126" x2="11.9999" y2="25.5001" gradientUnits="userSpaceOnUse">
<stop stop-color="#9C9C9C"/>
<stop offset="1" stop-opacity="0.87"/>
</linearGradient>
</defs>
</svg>
